<?xml version="1.0" encoding="utf-8"?>
<!-- Generator: Adobe Illustrator 25.0.0, SVG Export Plug-In . SVG Version: 6.00 Build 0)  -->
<svg version="1.1" id="Layer_1" xmlns="http://www.w3.org/2000/svg" xmlns:xlink="http://www.w3.org/1999/xlink" x="0px" y="0px"
	 viewBox="0 0 82.7 94.9" style="enable-background:new 0 0 82.7 94.9;" xml:space="preserve">
<style type="text/css">
	.st0{fill:#dca101;}
</style>
<g id="Layer_2_1_">
	<g id="Layer_1-2">
		<path class="st0" d="M41.3,0C18.5,0,0,15.1,0,33.7c0,0.5,0.2,0.9,0.5,1.2l27,28.7c0.6-1.1,1.5-2,2.6-2.6l-26-27.8
			c0.4-1.8,4.6-4.3,11.1-4.3c6.9,0,10.7,2.6,11.3,4.6l8.2,26.4h3.9l-8-25.9c-0.2-0.5-0.2-0.9,0-1.4c1-1.7,5-3.7,10.9-3.7
			c5.7,0,9.6,1.9,10.7,3.6c0.3,0.5,0.3,1,0.1,1.5l-8,25.9h3.8l8.2-26.4c0.7-2.3,4.4-4.6,11.3-4.6c6.5,0,10.6,2.5,11,4.3L52.6,61
			c1.1,0.6,2,1.5,2.6,2.6l27-28.7c0.3-0.3,0.5-0.7,0.5-1.2C82.6,15.1,64.1,0,41.3,0z"/>
		<path class="st0" d="M48.7,63.7H33.9c-2.1,0-3.8,1.7-3.8,3.8v23.6c0,2.1,1.7,3.8,3.8,3.8c0,0,0,0,0,0h14.8c2.1,0,3.8-1.7,3.8-3.8
			l0,0V67.5C52.5,65.4,50.8,63.7,48.7,63.7z M40.6,77.8H42c2.8-0.2,5.2,1.8,5.4,4.6c0.2,2.8-1.8,5.2-4.6,5.4l0,0v2
			c0,0.2-0.2,0.4-0.4,0.4h-2.3c-0.2,0-0.4-0.2-0.4-0.4v-2c-2.2-0.4-4-2.2-4.2-4.5c0-0.2,0.2-0.4,0.4-0.4h2.4c0.2,0,0.4,0.1,0.4,0.3
			c0.2,0.9,1,1.6,1.9,1.6h1.3c1.1,0.3,2.2-0.4,2.4-1.4c0.3-1.1-0.4-2.2-1.4-2.4c-0.3-0.1-0.6-0.1-0.9,0h-1.2c-2.7,0-5-1.9-5.3-4.6
			c-0.3-2.7,1.6-5.1,4.2-5.5v-2c0-0.2,0.2-0.4,0.4-0.4h2.3c0.2,0,0.4,0.2,0.4,0.4v2c2.2,0.4,4,2.2,4.2,4.5c0,0.2-0.2,0.4-0.4,0.4
			h-2.3c-0.2,0-0.4-0.1-0.4-0.3c-0.2-0.9-1-1.6-1.9-1.6h-1.3c-1,0-1.8,0.7-2,1.6c-0.2,1.1,0.5,2.1,1.6,2.4
			C40.4,77.8,40.5,77.8,40.6,77.8z"/>
	</g>
</g>
</svg>
