<?xml version="1.0" encoding="utf-8"?>
<!-- Generator: Adobe Illustrator 25.0.0, SVG Export Plug-In . SVG Version: 6.00 Build 0)  -->
<svg version="1.1" id="Layer_1" xmlns="http://www.w3.org/2000/svg" xmlns:xlink="http://www.w3.org/1999/xlink" x="0px" y="0px"
	 viewBox="0 0 96 96" style="enable-background:new 0 0 96 96;" xml:space="preserve">
<style type="text/css">
	.st0{fill:#DCA101;}
</style>
<g id="Layer_2_1_">
	<g id="Layer_1-2">
		<path class="st0" d="M6.9,47.4l12.9,5.4c-1.1,3-2.1,6-2.8,9.1c-0.2,0.9,0.1,1.9,0.7,2.6l13.8,13.8c0.7,0.7,1.7,0.9,2.6,0.7
			c3.1-0.7,6.1-1.7,9.1-2.8l5.4,12.9c0.4,1.1,1.7,1.6,2.7,1.1c0.3-0.1,0.5-0.3,0.7-0.4l7.2-7.2C62,79.8,63.5,76,63.3,72l-0.3-6.8
			C77.9,53.8,91.8,34.5,96,2.7c0.2-1.3-0.7-2.4-1.9-2.6c0,0,0,0-0.1,0c-0.2,0-0.5,0-0.7,0c-31.8,4.1-51.1,18-62.6,33L24,32.8
			c-4-0.2-7.8,1.3-10.6,4.1L6.2,44c-0.8,0.8-0.8,2.1,0,3C6.4,47.1,6.6,47.3,6.9,47.4z M60,23.7c3.4-3.4,8.9-3.4,12.3,0
			s3.4,8.9,0,12.3c-3.4,3.4-8.9,3.4-12.3,0C56.6,32.6,56.6,27.1,60,23.7C60,23.7,60,23.7,60,23.7L60,23.7z M0,93.5
			c0.7-13.6,7.3-21.1,11.1-24.3c0.5-0.4,1.2-0.3,1.6,0.2C13,69.7,13,70,13,70.3c-0.4,2.1-0.4,4.1-0.2,6.2c0.4,3.5,3.2,6.2,6.7,6.7
			c2.1,0.3,4.2,0.2,6.3-0.2c0.6-0.1,1.2,0.3,1.3,0.9c0.1,0.3,0,0.7-0.3,1C23.6,88.7,16.1,95.3,2.5,96c-1.3,0.1-2.4-0.9-2.5-2.2V93.5
			z"/>
	</g>
</g>
</svg>
