<?xml version="1.0" encoding="UTF-8" standalone="no"?>
<svg
   xmlns:dc="http://purl.org/dc/elements/1.1/"
   xmlns:cc="http://creativecommons.org/ns#"
   xmlns:rdf="http://www.w3.org/1999/02/22-rdf-syntax-ns#"
   xmlns:svg="http://www.w3.org/2000/svg"
   xmlns="http://www.w3.org/2000/svg"
   xmlns:sodipodi="http://sodipodi.sourceforge.net/DTD/sodipodi-0.dtd"
   xmlns:inkscape="http://www.inkscape.org/namespaces/inkscape"
   width="2040"
   height="253"
   version="1.1"
   id="svg4"
   sodipodi:docname="illustration-section-02.svg"
   inkscape:version="0.92.5 (2060ec1f9f, 2020-04-08)">
  <metadata
     id="metadata10">
    <rdf:RDF>
      <cc:Work
         rdf:about="">
        <dc:format>image/svg+xml</dc:format>
        <dc:type
           rdf:resource="http://purl.org/dc/dcmitype/StillImage" />
      </cc:Work>
    </rdf:RDF>
  </metadata>
  <defs
     id="defs8" />
  <sodipodi:namedview
     pagecolor="#ffffff"
     bordercolor="#666666"
     borderopacity="1"
     objecttolerance="10"
     gridtolerance="10"
     guidetolerance="10"
     inkscape:pageopacity="0"
     inkscape:pageshadow="2"
     inkscape:window-width="793"
     inkscape:window-height="480"
     id="namedview6"
     showgrid="false"
     inkscape:zoom="0.1372549"
     inkscape:cx="297.16159"
     inkscape:cy="126.5"
     inkscape:window-x="0"
     inkscape:window-y="38"
     inkscape:window-maximized="0"
     inkscape:current-layer="svg4" />
  <path
     d="m 922.67943,239.19401 6.248,-4.212 -58.73,-28.496 a 5448.014,5448.014 0 0 1 -17.395,-8.541 c -5.586,-2.766 -11.54,-5.801 -17.239,-9.254 a 92.908,92.908 0 0 1 -15.982,-12.319 c -4.647,-4.468 -9.284,-9.7 -14.178,-15.99 -2.837,-3.646 -5.682,-7.433 -8.435,-11.096 a 1450.939,1450.939 0 0 0 -4.894,-6.488 c -4.913,-6.467 -9.477,-11.726 -13.95,-16.08 a 70.311,70.311 0 0 0 -5.425,-4.762 c -0.124,-0.097 -0.245,-0.2 -0.369,-0.297 -0.182,-0.142 -0.366,-0.271 -0.549,-0.41 a 59.463,59.463 0 0 0 -7.59,-4.94 c -0.415,-0.224 -0.833,-0.432 -1.25,-0.644 -0.256,-0.13 -0.51,-0.269 -0.767,-0.394 l -0.084,-0.041 c -5.593,-2.713 -11.982,-4.556 -18.987,-5.48 a 113.96,113.96 0 0 0 -7.336,-0.717 c -0.404,-0.025 -0.822,-0.044 -1.232,-0.069 -0.46,-0.026 -0.913,-0.056 -1.382,-0.078 -0.443,-0.02 -0.901,-0.034 -1.353,-0.05 -0.45,-0.018 -0.895,-0.039 -1.355,-0.052 -0.502,-0.014 -1.021,-0.022 -1.534,-0.032 -0.424,-0.008 -0.84,-0.02 -1.27,-0.027 -0.499,-0.005 -1.017,-0.004 -1.526,-0.007 -0.46,0 -0.911,-0.007 -1.38,-0.005 -0.986,0.003 -1.989,0.012 -3.01,0.03 -0.283,0.006 -0.568,0.013 -0.85,0.017 -2.268,0.043 -4.538,0.09 -6.81,0.142 -4.752,0.104 -9.663,0.213 -14.461,0.235 h -0.113 c -0.42,0.002 -0.827,-0.002 -1.241,-0.003 -3.551,-0.006 -6.916,-0.1 -10.112,-0.299 -0.647,-0.04 -1.281,-0.087 -1.914,-0.135 -0.24,-0.018 -0.486,-0.032 -0.724,-0.051 -2.607,-0.21 -5.109,-0.49 -7.527,-0.837 a 93.585,93.585 0 0 1 -19.733,-5.105 c -5.905,-2.25 -11.527,-4.812004 -18.153,-7.965004 a 6157.788,6157.788 0 0 1 -17.703,-8.490004 l -57.347,-27.825001 0.524,7.498 55.726,27.030005 c 5.31,2.552 10.62,5.107 15.946,7.646004 5.654,2.695 11.743,5.535 17.955,8.042 6.272,2.51 12.673,4.409 19.021,5.645 6.33,1.222 13.12,1.951 20.762,2.23 5.978,0.214 12.152,0.258 18.121,0.3 l 3.715,0.028 c 8.263,0.067 15.283,0.54 21.46,1.45 7.163,1.05 13.727,3.008 19.511,5.814 l 0.109,0.053 c 5.743,2.801 11.297,6.717 16.51,11.641 4.523,4.273 9.216,9.465 14.348,15.873 l 2.522,3.155 c 3.628,4.54 7.378,9.237 11.133,13.683 4.896,5.8 9.615,10.658 14.425,14.856 a 102.025,102.025 0 0 0 7.644,6.028 c 2.186,1.56 4.464,3.03 6.792,4.439 0.516,0.312 1.017,0.64 1.54,0.944 5.72,3.307 11.635,6.298 17.173,9.036 5.531,2.73 11.06,5.438 16.574,8.138 l 0.81,0.398 4.356,2.113 z m -8.16,5.507 6.247,-4.211 -54.282,-26.337 -0.004,-0.002 -0.815,-0.4 c -5.516,-2.702 -11.045,-5.41 -16.58,-8.141 -5.544,-2.739 -11.475,-5.737 -17.292,-9.1 -0.364,-0.212 -0.72,-0.432 -1.082,-0.647 a 109.539,109.539 0 0 1 -7.41,-4.84 103.503,103.503 0 0 1 -7.794,-6.145 c -4.89,-4.27 -9.677,-9.2 -14.638,-15.073 -3.77,-4.464 -7.527,-9.168 -11.159,-13.715 l -2.53,-3.165 c -5.063,-6.324 -9.694,-11.449 -14.159,-15.67 a 77.447,77.447 0 0 0 -1.916,-1.75 c -4.365,-3.85 -8.95,-6.972 -13.66,-9.32 -0.18,-0.09 -0.358,-0.188 -0.538,-0.275 -5.6,-2.715 -11.968,-4.61 -18.928,-5.634 -6.085,-0.895 -13.015,-1.362 -21.186,-1.429 l -3.665,-0.026 c -6,-0.043 -12.203,-0.087 -18.226,-0.304 -7.745,-0.28 -14.637,-1.02 -21.07,-2.264 -6.476,-1.261 -12.997,-3.197 -19.386,-5.753 a 215.12,215.12 0 0 1 -4.67,-1.952 c -4.461,-1.922 -8.802,-3.953 -12.926,-5.916 -0.156,-0.074 -0.32,-0.15 -0.475,-0.225 -5.203,-2.482004 -10.393,-4.976004 -15.577,-7.467004 l -0.464,-0.224 c -0.328,-0.158 -0.658,-0.315 -0.984,-0.474 l -0.729,-0.35 -5.82,-2.822004 -0.13,-0.064 -23.71,-11.504001 -23.229,-11.272 0.524,7.5 35.241,17.100005 14.809,7.183004 5.11,2.458 c 2.437,1.17 4.877,2.342 7.318,3.511 1.592,0.762 3.184,1.528 4.777,2.288 5.61,2.676 11.662,5.519 17.913,8.17 6.347,2.682 12.478,4.74 18.741,6.293 6.298,1.548 13.102,2.674 20.223,3.342 7.095,0.666 14.316,1.036 21.301,1.394 8.328,0.43 15.029,1.122 21.088,2.181 7.064,1.236 13.575,3.282 19.351,6.08 l 0.133,0.065 c 5.728,2.794 11.31,6.608 16.597,11.34 4.585,4.104 9.254,8.914 14.693,15.138 4.602,5.266 9.36,10.713 14.158,15.774 4.887,5.153 9.923,9.78 14.97,13.748 4.964,3.89 10.454,7.517 16.317,10.776 0.292,0.161 0.585,0.32 0.877,0.48 a 324.985,324.985 0 0 0 5.15,2.755 c 0.398,0.21 0.797,0.416 1.195,0.623 a 446.239,446.239 0 0 0 3.957,2.027 732.433,732.433 0 0 0 6.076,3.031 c 5.799,2.86 11.593,5.694 17.37,8.521 z m -8.168,5.51 6.247,-4.213 -49.838,-24.181 a 5697.576,5697.576 0 0 1 -17.398,-8.535 672.887,672.887 0 0 1 -6.096,-3.045 l -0.233,-0.118 a 441.064,441.064 0 0 1 -3.751,-1.922 l -1.188,-0.62 a 298.845,298.845 0 0 1 -5.184,-2.773 c -0.296,-0.162 -0.591,-0.316 -0.888,-0.48 -5.96,-3.315 -11.54,-7 -16.583,-10.954 -5.121,-4.028 -10.23,-8.719 -15.184,-13.945 -4.827,-5.09 -9.599,-10.552 -14.214,-15.834 -5.383,-6.161 -9.997,-10.915 -14.52,-14.963 -5.191,-4.644 -10.692,-8.39 -16.268,-11.095 -5.61,-2.718 -11.943,-4.706 -18.823,-5.91 -5.981,-1.046 -12.606,-1.73 -20.848,-2.153 -7.015,-0.36 -14.27,-0.733 -21.385,-1.402 -7.225,-0.677 -14.127,-1.819 -20.515,-3.391 -6.362,-1.576 -12.591,-3.667 -19.042,-6.392 -6.319,-2.682 -12.383,-5.53 -17.994,-8.207 -5.376,-2.568 -10.738,-5.147 -16.095,-7.723 l -1.649,-0.794 -48.494,-23.530009 0.524,7.500001 62.827,30.483008 3.572,1.659 c 4.683,2.176 9.526,4.428 14.331,6.56 6.416,2.829 12.463,5.081 18.486,6.887 6.184,1.842 12.807,3.354 19.682,4.496 6.903,1.136 14.002,1.975 20.644,2.713 8.228,0.914 14.768,1.922 20.586,3.172 6.94,1.491 13.376,3.66 19.13,6.449 l 0.134,0.065 c 5.705,2.783 11.338,6.463 16.748,10.94 4.593,3.802 9.41,8.295 15.158,14.137 5.43,5.512 10.022,10.08 14.791,14.453 5.1,4.67 10.33,8.912 15.542,12.61 5.083,3.597 10.523,6.936 16.635,10.203 6.234,3.31 12.536,6.442 17.328,8.803 5.495,2.705 10.986,5.39 16.462,8.068 l 0.93,0.455 z m -280.3,-171.640009 -61.689,-29.933 0.522,7.486 58.335,28.304 a 4989.183,4989.183 0 0 0 17.73,8.507005 c 6.598,3.142 12.184,5.686 18.004,7.902004 a 91.635,91.635 0 0 0 19.31,4.995 c 6.347,0.914 13.289,1.34 21.22,1.305 0.317,0 0.64,-0.008 0.957,-0.01 2.1,-0.014 4.213,-0.037 6.33,-0.075 0.763,-0.014 1.513,-0.032 2.275,-0.048 1.681,-0.034 3.367,-0.067 5.02,-0.104 2.544,-0.056 5.087,-0.113 7.624,-0.156 8.28,-0.144 15.372,0.19 21.679,1.024 7.217,0.95 13.811,2.856 19.6,5.663 l 0.112,0.055 c 5.746,2.802 11.278,6.77 16.441,11.798 4.547,4.424 9.174,9.757 14.149,16.304 1.616,2.126 3.223,4.266 4.83,6.405 2.772,3.686 5.636,7.497 8.485,11.161 4.84,6.223 9.415,11.383 13.985,15.777 a 91.01,91.01 0 0 0 15.636,12.051 c 5.643,3.422 11.547,6.43 17.087,9.17 a 5443.272,5443.272 0 0 0 17.363,8.525 l 59.791,29.011 6.241,-4.21 -63.175,-30.651 -0.814,-0.398 c -5.516,-2.702 -11.046,-5.41 -16.582,-8.14 -5.58,-2.758 -11.523,-5.805 -17.193,-9.4 -5.618,-3.587 -10.901,-7.934 -15.704,-12.924 -4.463,-4.638 -8.993,-10.08 -13.846,-16.636 a 1200.451,1200.451 0 0 1 -6.045,-8.261 1032.268,1032.268 0 0 0 -7.097,-9.68 c -4.808,-6.46 -9.35,-11.757 -13.886,-16.194 -5.005,-4.897 -10.357,-8.75 -15.908,-11.458 l -0.109,-0.053 c -5.593,-2.713 -11.985,-4.548 -18.998,-5.455 -6.295,-0.815004 -13.307,-1.104004 -21.434,-0.883004 -3.848,0.102 -7.714,0.248 -11.58,0.393 -3.61,0.136 -7.224,0.272004 -10.818,0.374004 -8.22,0.232 -15.358,0.016 -21.826,-0.660004 -6.915,-0.725 -13.657,-2.244 -20.04,-4.516 -5.914,-2.133 -11.563,-4.683004 -18.226,-7.856004 h -10e-4 c -4.607,-2.198001 -9.203,-4.405001 -13.797,-6.610001 l -3.958,-1.9 z m -58.09,-37.653 -3.968,2.676 0.19,2.722 63.567,30.838 c 5.63,2.708 11.27,5.42 16.923,8.117 6.588,3.140001 12.177,5.663001 18.042,7.778005 6.22,2.217 12.806,3.7 19.573,4.41 6.378,0.667 13.43,0.88 21.56,0.65 3.588,-0.102 7.194,-0.236 10.8,-0.372 3.874,-0.146 7.747,-0.292 11.601,-0.396 8.232,-0.222 15.346,0.072 21.744,0.901 7.223,0.933 13.822,2.830004 19.615,5.637004 l 0.099,0.048 c 5.75,2.805 11.281,6.786 16.444,11.834 4.605,4.504 9.214,9.879 14.093,16.43 2.384,3.2 4.78,6.496 7.1,9.684 2.01,2.764 4.02,5.53 6.044,8.262 4.809,6.493 9.282,11.87 13.68,16.438 4.693,4.876 9.854,9.123 15.337,12.623 5.56,3.527 11.459,6.551 17.004,9.294 a 7390.296,7390.296 0 0 0 17.387,8.534 l 64.216,31.155 1.445,-0.975 -0.403,-5.757 -62.425,-30.288 -1.407,-0.689 c -5.32,-2.602 -10.655,-5.21 -15.99,-7.843 -5.618,-2.774 -11.583,-5.846 -17.155,-9.522 -5.442,-3.618 -10.65,-8.123 -15.481,-13.39 -4.309,-4.701 -8.78,-10.254 -13.664,-16.978 -1.269,-1.747 -2.534,-3.5 -3.8,-5.255 -3.033,-4.206 -6.17,-8.554 -9.306,-12.73 -4.79,-6.382 -9.353,-11.634 -13.95,-16.056 -5.031,-4.838 -10.399,-8.665 -15.956,-11.375004 l -0.112,-0.055 c -5.601,-2.716 -11.982,-4.581004 -18.963,-5.542004 -6.344,-0.872 -13.332,-1.206 -21.366,-1.019 -5.082,0.12 -10.302,0.335 -15.35,0.545 -2.356,0.098 -4.712,0.195 -7.064,0.284 -8.366,0.314 -15.557,0.217 -21.985,-0.297 -7.177,-0.573 -13.997,-1.938 -20.272,-4.059 -6.599,-2.248001 -12.904,-5.182001 -18.294,-7.755001 -4.897,-2.339 -9.78,-4.687 -14.657,-7.034 l -3.086,-1.484 z m 8.178,-5.506 -6.246,4.212 63.536,30.817 a 6603.92,6603.92 0 0 0 14.954,7.177 h -10e-4 c 5.34,2.549 11.583,5.453 18.078,7.665 6.115,2.068001 12.773,3.400001 19.787,3.961001 6.351,0.508 13.466,0.604 21.75,0.29 2.346,-0.088 4.696,-0.185 7.045,-0.282 5.06,-0.21 10.294,-0.428 15.4,-0.547 8.143,-0.19 15.236,0.15 21.683,1.036 7.19,0.991 13.772,2.917 19.564,5.725004 l 0.124,0.06 c 5.746,2.803 11.282,6.747004 16.457,11.727004 4.671,4.495 9.304,9.826 14.163,16.295 3.144,4.188 6.283,8.539 9.316,12.746 1.27,1.759 2.539,3.517 3.81,5.267 4.836,6.657 9.258,12.153 13.518,16.8 4.72,5.15 9.806,9.55 15.113,13.077 5.486,3.62 11.38,6.654 16.934,9.394 a 6259.91,6259.91 0 0 0 17.37,8.519 l 61.405,29.794 -0.523,-7.499 -58.02,-28.15 a 6974.891,6974.891 0 0 1 -17.403,-8.524 c -6.54,-3.22 -11.954,-6.086 -17.124,-9.614 -5.316,-3.64 -10.478,-8.236 -15.344,-13.66 -0.243,-0.272 -0.489,-0.554 -0.732,-0.83 -4.026,-4.548 -8.144,-9.726 -12.889,-16.216 l -1.748,-2.394 c -3.723,-5.1 -7.572,-10.371 -11.445,-15.383 -4.806,-6.218 -9.42,-11.365 -14.104,-15.733 -5.06,-4.719004 -10.454,-8.491008 -16.039,-11.215008 l -0.12,-0.059 c -5.628,-2.727 -11.985,-4.648001 -18.899,-5.710001 -6.357,-0.974 -13.293,-1.412 -21.205,-1.336 -6.203,0.06 -12.596,0.288 -18.778,0.508 l -3.531,0.125 c -8.588,0.298 -15.582,0.23 -22.013,-0.211 -7.323,-0.504 -14.186,-1.777 -20.402,-3.784 -6.55,-2.134 -12.653,-4.97 -18.34,-7.69 a 6489.297,6489.297 0 0 1 -17.74,-8.527 l -57.36,-27.831 z m 8.156,-5.513 -6.244,4.214 56.315,27.325 c 5.9,2.844 11.809,5.69 17.733,8.524 5.63,2.693 11.664,5.498 18.096,7.592 6.064,1.957 12.766,3.199 19.921,3.69 6.381,0.439 13.31,0.506 21.806,0.209 l 3.53,-0.125 c 6.195,-0.221 12.602,-0.45 18.83,-0.51 8.022,-0.076 15.063,0.369 21.528,1.36 7.11,1.093 13.66,3.073 19.468,5.887001 l 0.124,0.06 c 5.76,2.81 11.321,6.696004 16.526,11.551004 4.768,4.444004 9.453,9.670004 14.323,15.973004 l 0.003,0.003 c 3.891,5.034 7.748,10.319 11.479,15.43 l 1.748,2.392 c 4.759,6.508 8.881,11.686 12.917,16.234 0.19,0.216 0.382,0.437 0.573,0.65 4.751,5.298 9.792,9.788 14.985,13.345 5.072,3.462 10.416,6.29 16.879,9.472 5.809,2.858 11.61,5.693 17.394,8.52 l 56.983,27.647 -0.524,-7.494 -53.616,-26.015 -1.032,-0.504 a 7932.65,7932.65 0 0 1 -16.374,-8.01 c -5.316,-2.61 -11.461,-5.724 -17.116,-9.654 -5.25,-3.648 -10.398,-8.263 -15.305,-13.72 -4.2,-4.674 -8.549,-10.037 -13.686,-16.88 -4.33,-5.767 -8.808,-11.73 -13.377,-17.39 -4.85,-6.01 -9.533,-11.013004 -14.318,-15.299004 -5.146,-4.610004 -10.658,-8.350004 -16.276,-11.076005 -5.656,-2.742 -11.988,-4.735 -18.816,-5.924 -6.352,-1.105 -13.219,-1.686 -20.992,-1.774 -7.09,-0.082 -14.424,0.08 -21.518,0.237 l -0.596,0.013 c -8.633,0.193 -15.6,0.077 -21.926,-0.364 -7.396,-0.516 -14.269,-1.766 -20.427,-3.717 -6.62,-2.095 -12.869,-5.02 -18.383,-7.601 l -70.635,-34.27 z m 8.172,-5.504 -6.246,4.21 69.568,33.755 c 5.453,2.55 11.648,5.45 18.128,7.501 6.019,1.904 12.735,3.125 19.961,3.628 6.264,0.436 13.173,0.55 21.744,0.36 l 0.596,-0.013 c 7.11,-0.157 14.46,-0.32 21.585,-0.238 7.881,0.09 14.853,0.68 21.312,1.803 7.012,1.221 13.52,3.272 19.346,6.094 5.787,2.833 11.453,6.652001 16.738,11.387005 4.865,4.357 9.621,9.438004 14.538,15.533004 4.562,5.647 9.057,11.632 13.404,17.421 5.134,6.838 9.448,12.157 13.591,16.765 4.807,5.348 9.841,9.861 14.959,13.416 5.53,3.844 11.6,6.92 16.857,9.503 5.808,2.851 11.61,5.683 17.394,8.507 l 52.585,25.514 -0.525,-7.496 -66.64,-32.331 c -6.196,-3.099 -11.752,-5.96 -17.11,-9.672 -5.217,-3.613 -10.385,-8.185 -15.359,-13.59 a 203.729,203.729 0 0 1 -4.434,-4.995 c -2.798,-3.252 -5.786,-6.91 -9.13,-11.172 -0.096,-0.124 -0.188,-0.238 -0.285,-0.361 -0.105,-0.136 -0.216,-0.276 -0.322,-0.41 -1.009,-1.289 -2.014,-2.572 -3.02,-3.846 -0.77,-0.975 -1.556,-1.957 -2.339,-2.939 -0.332,-0.416 -0.663,-0.837 -0.996,-1.252 a 381.112,381.112 0 0 0 -6.944,-8.43 c -4.924,-5.787004 -9.686,-10.627008 -14.56,-14.803008 -5.197,-4.451001 -10.69,-8.082001 -16.404,-10.865001 -5.683,-2.754 -11.983,-4.825 -18.726,-6.152 -6.318,-1.246 -13.106,-1.988 -20.752,-2.274 -7.108,-0.265 -14.396,-0.273 -21.86,-0.259 -8.675,0.017 -15.587,-0.208 -21.752,-0.707 -7.381,-0.597 -14.23,-1.887 -20.356,-3.837 -6.607,-2.102 -12.854,-5.046 -18.366,-7.643 z m 8.155,-5.51 -6.243,4.21 65.126,31.6 c 5.442,2.567 11.62,5.48 18.11,7.546 5.979,1.901 12.679,3.163 19.914,3.748 6.109,0.495 12.967,0.717 21.585,0.701 7.486,-0.015 14.795,-0.006 21.938,0.262 7.757,0.288 14.646,1.043 21.064,2.307 6.91,1.363 13.375,3.487 19.213,6.317 l 0.15,0.072 c 5.786,2.823 11.398,6.548 16.682,11.074001 4.957,4.245 9.793,9.160004 14.783,15.025008 0.617,0.726 1.23,1.473 1.847,2.21 4.018,4.814 7.948,9.78 11.66,14.52 l 0.166,0.21 c 0.103,0.131 0.202,0.254 0.303,0.386 a 344.99,344.99 0 0 0 7.529,9.287 207.52,207.52 0 0 0 5.914,6.733 c 4.871,5.295 9.926,9.77 15.024,13.302 5.241,3.63 10.735,6.459 16.856,9.521 l 65.596,31.825 -0.524,-7.497 -62.234,-30.193 c -5.954,-2.958 -11.739,-5.912 -17.149,-9.573 -5.296,-3.583 -10.365,-7.929 -15.498,-13.283 -4.208,-4.393 -8.552,-9.338 -14.085,-16.034 -5.105,-6.178 -9.423,-11.313 -13.907,-16.286004 -5.011,-5.558004 -9.859,-10.231004 -14.817,-14.287005 -5.202,-4.257 -10.708,-7.815 -16.37,-10.577 l -0.16,-0.078 c -5.718,-2.77 -11.989,-4.918 -18.64,-6.382 -6.277,-1.385 -12.985,-2.299 -20.503,-2.795 -7.362,-0.486 -14.993,-0.695 -21.566,-0.853 -8.744,-0.21 -15.376,-0.581 -21.506,-1.2 -7.438,-0.752 -14.048,-2.103 -20.205,-4.13 -6.546,-2.157 -12.797,-5.12 -18.311,-7.732 z m 8.17,-5.502 -6.243,4.21 60.675,29.438 c 5.448,2.584 11.631,5.516 18.075,7.639 6.022,1.982 12.492,3.304 19.78,4.04 6.055,0.612 12.64,0.98 21.352,1.19 6.606,0.159 14.27,0.368 21.65,0.857 7.62,0.502 14.424,1.43 20.801,2.836 6.806,1.5 13.225,3.699 19.082,6.537 l 0.165,0.08 c 5.802,2.83 11.44,6.472 16.76,10.826 5.037,4.121 9.955,8.863001 15.036,14.496005 a 333.217,333.217 0 0 1 5.952,6.793004 c 0.266,0.31 0.53,0.615 0.796,0.929 0.11,0.129 0.221,0.262 0.331,0.39 a 809.885,809.885 0 0 1 6.885,8.24 c 5.5,6.657 9.815,11.568 13.987,15.923 4.953,5.168 10.059,9.546 15.174,13.011 5.296,3.586 11.02,6.508 16.91,9.434 l 61.196,29.69 -0.525,-7.496 -57.832,-28.06 c -5.577,-2.75 -11.5,-5.72 -17.283,-9.166 a 125.708,125.708 0 0 1 -15.624,-13.096 225.826,225.826 0 0 1 -6.648,-6.86 c -0.262,-0.28 -0.535,-0.579 -0.802,-0.867 -0.333,-0.36 -0.66,-0.712 -1.003,-1.085 l -0.092,-0.102 a 450.267,450.267 0 0 1 -5.835,-6.511 c -4.5,-5.117 -9.335,-10.552004 -14.218,-15.646008 -5.11,-5.33 -10.04,-9.836001 -15.074,-13.772001 -0.598,-0.467 -1.2,-0.925 -1.805,-1.376 -0.061,-0.046 -0.121,-0.094 -0.183,-0.138 -0.124,-0.093 -0.25,-0.18 -0.373,-0.271 a 94.147,94.147 0 0 0 -14.19,-8.62 l -0.102,-0.049 c -5.737,-2.781 -11.98,-5.002 -18.556,-6.601 -6.233,-1.517 -12.858,-2.602 -20.256,-3.318 -7.328,-0.71 -14.813,-1.144 -21.253,-1.496 -8.646,-0.473 -15.185,-1.03 -21.207,-1.807 a 123.956,123.956 0 0 1 -20.062,-4.313 l -0.04,-0.016 -0.037,-0.013 c -0.075,-0.031 -0.15,-0.064 -0.226,-0.094 -5.974,-2.367 -11.622,-5.02 -17.852,-7.992 l -57.285,-27.794 z m 8.162,-5.5070003 -6.243,4.2110003 56.236,27.286 c 6.246,2.982 11.909,5.645 17.906,8.014 a 121.842,121.842 0 0 0 19.698,4.232 c 5.94,0.767 12.436,1.321 21.06,1.793 7.984,0.436 14.667,0.858 21.336,1.502 7.49,0.724 14.207,1.825 20.535,3.365 6.712,1.632 13.09,3.902 18.956,6.746 0.064,0.03 0.127,0.06 0.191,0.092 5.802,2.83 11.46,6.39 16.822,10.586 5.12,4.006 10.12,8.573 15.286,13.963001 4.918,5.132004 9.768,10.581008 14.277,15.708008 5.654,6.431 10.06,11.157 14.281,15.325 a 124.439,124.439 0 0 0 15.31,12.845 c 5.654,3.363 11.536,6.313 17.07,9.043 l 56.795,27.556 -0.524,-7.5 -53.43,-25.922 -10e-4,-0.001 c -5.299,-2.598 -11.441,-5.65 -17.33,-9.03 a 131.822,131.822 0 0 1 -15.895,-12.502 c -4.378,-4.033 -8.917,-8.58 -14.717,-14.736 -4.614,-4.897004 -9.568,-10.100008 -14.546,-14.977008 -5.205,-5.098001 -10.22,-9.439001 -15.333,-13.270001 -0.103,-0.077 -0.206,-0.15 -0.308,-0.226 a 107.172,107.172 0 0 0 -16.455,-10.04 l -0.106,-0.049 a 101.468,101.468 0 0 0 -13.552,-5.356 107.806,107.806 0 0 0 -4.822,-1.4 c -6.188,-1.643 -12.735,-2.897 -20.014,-3.834 -0.4,-0.052 -0.803,-0.1 -1.205,-0.15 -0.446,-0.055 -0.893,-0.112 -1.34,-0.166 l -1.008,-0.118 c -0.555,-0.065 -1.11,-0.13 -1.665,-0.193 l -0.853,-0.094 c -0.597,-0.066 -1.193,-0.132 -1.787,-0.195 l -0.984,-0.104 c -0.518,-0.053 -1.035,-0.108 -1.551,-0.159 l -1.492,-0.149 -0.972,-0.097 a 1444.137,1444.137 0 0 0 -2.468,-0.235 1071.93,1071.93 0 0 0 -5.6,-0.51 c -8.51,-0.758 -14.945,-1.53 -20.87,-2.503 a 130.014,130.014 0 0 1 -19.771,-4.891 h -10e-4 l -0.066,-0.025 a 242.646,242.646 0 0 1 -9.021,-3.953 l -0.016,-0.008 a 632.843,632.843 0 0 1 -8.977,-4.239 z m 8.162,-5.5070003 -6.242,4.2100003 51.79,25.1290003 c 2.911,1.4 5.797,2.776 8.688,4.11 l 0.312,0.144 c 1.435,0.66 2.873,1.308 4.314,1.943 l 0.11,0.048 c 1.474,0.647 2.955,1.28 4.445,1.895 a 128.188,128.188 0 0 0 19.431,4.804 c 5.875,0.965 12.266,1.731 20.723,2.485 a 2032.864,2032.864 0 0 1 5.429,0.495 l 0.916,0.086 a 903.678,903.678 0 0 1 3.15,0.306 627.384,627.384 0 0 1 2.959,0.303 l 0.559,0.058 c 0.737,0.079 1.467,0.159 2.193,0.24 l 0.478,0.052 c 0.666,0.076 1.329,0.153 1.988,0.231 l 0.741,0.087 c 0.52,0.063 1.037,0.128 1.554,0.192 l 1.036,0.128 c 7.381,0.95 14.012,2.22 20.273,3.884 1.657,0.44 3.295,0.917 4.912,1.427 a 103.14,103.14 0 0 1 13.82,5.464 l 0.106,0.049 h 0.002 c 5.803,2.792 11.492,6.291 16.909,10.333 0.06,0.046 0.122,0.088 0.181,0.133 0.433,0.325 0.864,0.676 1.296,1.008 4.737,3.639 9.41,7.704 14.238,12.434 5.004,4.902001 9.977,10.123005 14.603,15.034005 5.786,6.141004 10.295,10.655004 14.616,14.636004 a 127.24,127.24 0 0 0 7.521,6.404 c 0.897,0.705 1.818,1.386 2.734,2.07 0.416,0.31 0.82,0.632 1.24,0.938 0.274,0.198 0.56,0.385 0.835,0.583 1.078,0.772 2.162,1.54 3.265,2.281 5.776,3.312 11.883,6.347 17.151,8.93 l 1.789,0.867 50.602,24.552 -0.525,-7.5 -49.024,-23.787 c -5.618,-2.723 -11.614,-5.682 -17.395,-8.856 -5.518,-3.471 -10.971,-7.38 -16.262,-11.648 -4.709,-4.217 -9.61,-8.847004 -15.017,-14.188004 -4.684,-4.625004 -9.69,-9.540005 -14.878,-14.307005 -5.309,-4.881 -10.405,-9.062 -15.582,-12.781 -5.438,-3.905 -11.083,-7.307 -16.875,-10.09 -5.767,-2.796 -11.96,-5.151 -18.406,-7 -6.15,-1.765 -12.621,-3.183 -19.783,-4.333 -6.946,-1.118 -13.985,-2.02 -20.6,-2.85 -7.562,-0.946 -14.29,-1.95 -20.569,-3.066 -6.719,-1.563 -13.222,-3.485 -19.383,-5.72 -6.2,-2.678 -12.28,-5.603 -17.98,-8.37 l -48.387,-23.4760006 z m 317.416,225.8490096 -1.441,0.972 -10.08,6.8 h -0.003 l -6.25,4.214 0.004,10e-4 -8.856,5.973 -9.392,6.336 -47.472,-23.032 -0.934,-0.456 c -5.477,-2.68 -10.97,-5.365 -16.467,-8.071 -4.806,-2.367 -11.124,-5.508 -17.384,-8.832 -6.189,-3.308 -11.7,-6.69 -16.851,-10.337 -5.28,-3.745 -10.575,-8.04 -15.736,-12.766 -4.801,-4.402 -9.415,-8.99 -14.867,-14.525 -5.7,-5.794 -10.468,-10.242 -15.007,-14 -5.288,-4.376 -10.787,-7.97 -16.35,-10.682 l -0.13,-0.063 c -5.61,-2.719 -11.894,-4.836 -18.677,-6.293 -5.75,-1.236 -12.229,-2.234 -20.387,-3.14 -6.67,-0.741 -13.798,-1.584 -20.75,-2.729 -6.958,-1.155 -13.662,-2.686 -19.927,-4.551 -6.106,-1.831 -12.23,-4.112 -18.723,-6.976 h -0.002 c -4.821,-2.138 -9.672,-4.394 -14.363,-6.574 l -3.587,-1.666 -63.884,-30.996008 -0.847,-12.101001 0.011,0.005 -0.525,-7.505 -0.01,-0.005 -0.844,-12.1 0.01,0.004 -0.526,-7.492 -0.016,-0.008 -0.35,-5.04 5.879,-3.968 0.007,0.004 6.256,-4.218 -0.006,-0.003 10.08,-6.804 0.007,0.003 6.247,-4.214 -0.008,-0.004 10.081,-6.799 0.006,0.003 6.246,-4.211 h -10e-4 l 8.16,-5.5050003 -10e-4,-0.001 10.08,-6.80000029 49.425,23.98100059 c 5.68,2.757 11.737,5.671 17.844,8.31 6.03,2.188 12.459,4.087 19.048,5.621 6.193,1.1 12.888,2.097 20.417,3.04 6.632,0.831 13.689,1.737 20.668,2.86 7.242,1.163 13.79,2.596 20.016,4.384 6.556,1.882 12.857,4.278 18.727,7.124 l 0.267,0.128 c 5.771,2.815 11.456,6.224 16.902,10.137 5.243,3.766 10.401,7.996 15.77,12.933 5.212,4.79 10.233,9.718001 14.929,14.356005 5.385,5.318 10.262,9.926004 14.907,14.089004 5.19,4.185 10.58,8.047 15.98,11.447 5.692,3.123 11.657,6.064 17.255,8.78 l 50.066,24.292 0.685,9.8 0.002,0.001 0.847,12.101 0.686,9.803 -0.003,-0.002 0.525,7.5 0.003,0.001 0.684,9.795 h 10e-4 l 0.685,9.804 0.003,0.002 0.846,12.1 -0.008,-0.004 z"
     id="path2"
     inkscape:connector-curvature="0"
     style="fill:#25282c;fill-rule:evenodd" />
</svg>
